<?xml version="1.0" encoding="UTF-8"?>
<svg id="Layer_1" data-name="Layer 1" xmlns="http://www.w3.org/2000/svg" viewBox="0 0 229.99 136.27">
  <defs>
    <style>
      .cls-1 {
        fill: #fff;
      }

      .cls-1, .cls-2 {
        stroke-width: 0px;
      }

      .cls-2 {
        fill: #007e42;
      }
    </style>
  </defs>
  <circle class="cls-1" cx="68.13" cy="68.13" r="68.13"/>
  <g>
    <polygon class="cls-2" points="140.76 55.23 145.35 55.23 145.35 66.94 148.44 66.94 148.44 55.23 153.04 55.23 153.04 52.75 140.76 52.75 140.76 55.23"/>
    <path class="cls-2" d="m166.55,57.01c0-2.99-1.6-4.28-4.97-4.28h-7.36v14.21h2.99v-5.58h3.52l3.13,5.58h3.36l-3.54-5.94c1.84-.39,2.87-1.8,2.87-3.99Zm-5.67,1.84h-3.66v-3.58h3.66c1.78,0,2.65.32,2.65,1.78s-.87,1.8-2.65,1.8Z"/>
    <path class="cls-2" d="m173.69,52.73l-6.02,14.21h3.16l1.27-3.39h6.17l1.31,3.39h3.33l-6.05-14.21h-3.16Zm-.62,8.29l2.08-5.46,2.16,5.46h-4.24Z"/>
    <polygon class="cls-2" points="193.46 62.94 187.65 52.73 183.87 52.73 183.87 66.94 186.93 66.94 186.8 56.2 192.91 66.94 196.38 66.94 196.38 52.73 193.33 52.73 193.46 62.94"/>
    <path class="cls-2" d="m207.09,58.67h-3.96c-1.25,0-1.88-.51-1.88-1.54,0-1.31.74-1.87,2.29-1.87h7.38v-2.53h-7.81c-3.38,0-4.99,1.27-4.99,4.35,0,2.85,1.49,4.07,4.73,4.07h3.52c1.45,0,2.12.38,2.12,1.65s-.74,1.6-2.31,1.6h-7.48v2.53h7.96c3.36,0,4.96-1.26,4.96-4.25s-1.37-4.02-4.53-4.02Z"/>
    <rect class="cls-2" x="213.41" y="52.73" width="3.13" height="14.21"/>
    <polygon class="cls-2" points="217.7 52.75 217.7 55.23 222.29 55.23 222.29 66.94 225.38 66.94 225.38 55.23 229.99 55.23 229.99 52.75 217.7 52.75"/>
    <path class="cls-2" d="m68.14,136.27c27.03,0,50.38-15.74,61.39-38.55-28.98-6.83-74.04-14.98-128.24-16.43,6.13,31.33,33.72,54.98,66.85,54.98Z"/>
    <path class="cls-2" d="m122.56,57.04c0-1.46-.88-1.78-2.65-1.78h-3.67v3.58h3.67c1.78,0,2.65-.35,2.65-1.81Z"/>
    <path class="cls-2" d="m71.5,55.23c-1.95.09-2.94,1.17-3.06,3.3l-.03,2.45c.03,2.45.93,3.41,3.09,3.47,2.13-.06,3.06-1.02,3.09-3.47l-.03-2.45c-.12-2.13-1.11-3.21-3.06-3.3Z"/>
    <path class="cls-2" d="m68.15,0C30.51,0,0,30.5,0,68.14c0,1.9.09,3.79.26,5.66,60.3.35,107.45,2.68,135.24,4.46.5-3.3.76-6.68.76-10.12C136.27,30.5,105.77,0,68.15,0Zm-4.08,55.23h-4.61v11.72h-3.09v-11.72h-4.58v-2.48h12.28v2.48Zm11.69,10.47c-1.29,1.02-2.51,1.23-4.08,1.26h-.44c-1.54-.03-2.74-.23-4.02-1.26-1.46-1.16-2.16-3.03-2.16-5.6,0-4.81,1.98-7.2,6.18-7.35.09-.03.18-.03.26-.03h.18v.03c4.26.11,6.27,2.48,6.27,7.35,0,2.57-.7,4.43-2.18,5.6Zm19.62,1.26h-4.4l-2.62-10.91-2.65,10.91h-4.37l-1.95-14.23h2.95l1.72,11.08,2.65-11.08h3.18l2.77,11.2,1.66-11.2h3.03l-1.95,14.23Zm15.39-11.75h-4.9c-2.15,0-3.26,1.08-3.35,3.33h8.25v2.45h-8.28c.03,2.56,1.02,3.5,3.38,3.5h4.9v2.48h-5.04c-1.72,0-3.03-.15-4.43-1.26-1.46-1.16-2.18-3.03-2.18-5.6,0-5.01,2.13-7.38,6.71-7.38h4.96v2.48Zm14.78,1.81c0,2.19-1.02,3.61-2.86,3.99l3.56,5.95h-3.38l-3.12-5.6h-3.53v5.6h-2.97v-14.23h7.35c3.35,0,4.96,1.31,4.96,4.29Z"/>
    <path class="cls-2" d="m.79,78.44c58.02.96,103.84,6.87,131.86,11.61.47-1.36.89-2.75,1.27-4.14-28.86-3.75-76.06-8.53-133.36-9.3.08.62.14,1.23.23,1.84Z"/>
  </g>
</svg>